<mxfile host="app.diagrams.net" modified="2024-04-23T14:00:04.131Z" agent="Mozilla/5.0 (Macintosh; Intel Mac OS X 10_15_7) AppleWebKit/537.36 (KHTML, like Gecko) Chrome/124.0.0.0 Safari/537.36" etag="Cp-be-x-CeU7gJDYY3c1" version="24.2.8" type="device">
  <diagram id="C5RBs43oDa-KdzZeNtuy" name="Page-1">
    <mxGraphModel dx="641" dy="407" grid="1" gridSize="10" guides="1" tooltips="1" connect="1" arrows="1" fold="1" page="1" pageScale="1" pageWidth="1200" pageHeight="1920" math="0" shadow="0">
      <root>
        <mxCell id="WIyWlLk6GJQsqaUBKTNV-0" />
        <mxCell id="WIyWlLk6GJQsqaUBKTNV-1" parent="WIyWlLk6GJQsqaUBKTNV-0" />
        <mxCell id="s-Dn0FR5llp2s9H8pclf-69" style="edgeStyle=orthogonalEdgeStyle;rounded=0;orthogonalLoop=1;jettySize=auto;html=1;exitX=0.5;exitY=0;exitDx=0;exitDy=0;entryX=1;entryY=0.25;entryDx=0;entryDy=0;startArrow=classic;startFill=1;" edge="1" parent="WIyWlLk6GJQsqaUBKTNV-1" source="s-Dn0FR5llp2s9H8pclf-2" target="s-Dn0FR5llp2s9H8pclf-6">
          <mxGeometry relative="1" as="geometry" />
        </mxCell>
        <mxCell id="s-Dn0FR5llp2s9H8pclf-2" value="View / complete / add new challenges" style="ellipse;whiteSpace=wrap;html=1;aspect=fixed;fontSize=10;fillColor=#f8cecc;strokeColor=#b85450;" vertex="1" parent="WIyWlLk6GJQsqaUBKTNV-1">
          <mxGeometry x="750" y="375" width="80" height="80" as="geometry" />
        </mxCell>
        <mxCell id="s-Dn0FR5llp2s9H8pclf-72" style="edgeStyle=orthogonalEdgeStyle;rounded=0;orthogonalLoop=1;jettySize=auto;html=1;exitX=0.5;exitY=0;exitDx=0;exitDy=0;entryX=1;entryY=0;entryDx=0;entryDy=0;startArrow=classic;startFill=1;" edge="1" parent="WIyWlLk6GJQsqaUBKTNV-1" source="s-Dn0FR5llp2s9H8pclf-3" target="s-Dn0FR5llp2s9H8pclf-6">
          <mxGeometry relative="1" as="geometry">
            <Array as="points">
              <mxPoint x="900" y="250" />
              <mxPoint x="370" y="250" />
            </Array>
          </mxGeometry>
        </mxCell>
        <mxCell id="s-Dn0FR5llp2s9H8pclf-79" style="edgeStyle=orthogonalEdgeStyle;rounded=0;orthogonalLoop=1;jettySize=auto;html=1;exitX=1;exitY=0;exitDx=0;exitDy=0;entryX=0.381;entryY=0.997;entryDx=0;entryDy=0;entryPerimeter=0;" edge="1" parent="WIyWlLk6GJQsqaUBKTNV-1" source="s-Dn0FR5llp2s9H8pclf-3" target="s-Dn0FR5llp2s9H8pclf-64">
          <mxGeometry relative="1" as="geometry">
            <Array as="points">
              <mxPoint x="950" y="387" />
              <mxPoint x="950" y="210" />
            </Array>
          </mxGeometry>
        </mxCell>
        <mxCell id="s-Dn0FR5llp2s9H8pclf-3" value="&lt;font style=&quot;font-size: 10px;&quot;&gt;View / Upload / delete&lt;/font&gt;&lt;div style=&quot;font-size: 10px;&quot;&gt;&lt;font style=&quot;font-size: 10px;&quot;&gt;voice recording&lt;/font&gt;&lt;/div&gt;" style="ellipse;whiteSpace=wrap;html=1;aspect=fixed;fontSize=10;fillColor=#f8cecc;strokeColor=#b85450;" vertex="1" parent="WIyWlLk6GJQsqaUBKTNV-1">
          <mxGeometry x="860" y="375" width="80" height="80" as="geometry" />
        </mxCell>
        <mxCell id="s-Dn0FR5llp2s9H8pclf-77" style="edgeStyle=orthogonalEdgeStyle;rounded=0;orthogonalLoop=1;jettySize=auto;html=1;entryX=0.25;entryY=0;entryDx=0;entryDy=0;" edge="1" parent="WIyWlLk6GJQsqaUBKTNV-1" source="s-Dn0FR5llp2s9H8pclf-4" target="s-Dn0FR5llp2s9H8pclf-6">
          <mxGeometry relative="1" as="geometry">
            <Array as="points">
              <mxPoint x="1110" y="415" />
              <mxPoint x="1110" y="90" />
              <mxPoint x="273" y="90" />
            </Array>
          </mxGeometry>
        </mxCell>
        <mxCell id="s-Dn0FR5llp2s9H8pclf-78" style="edgeStyle=orthogonalEdgeStyle;rounded=0;orthogonalLoop=1;jettySize=auto;html=1;entryX=0.75;entryY=1;entryDx=0;entryDy=0;" edge="1" parent="WIyWlLk6GJQsqaUBKTNV-1" source="s-Dn0FR5llp2s9H8pclf-4" target="s-Dn0FR5llp2s9H8pclf-64">
          <mxGeometry relative="1" as="geometry">
            <Array as="points">
              <mxPoint x="998" y="330" />
              <mxPoint x="998" y="330" />
            </Array>
          </mxGeometry>
        </mxCell>
        <mxCell id="s-Dn0FR5llp2s9H8pclf-4" value="View / Upload Memoryboard" style="ellipse;whiteSpace=wrap;html=1;aspect=fixed;fontSize=10;fillColor=#f8cecc;strokeColor=#b85450;" vertex="1" parent="WIyWlLk6GJQsqaUBKTNV-1">
          <mxGeometry x="970" y="375" width="80" height="80" as="geometry" />
        </mxCell>
        <mxCell id="s-Dn0FR5llp2s9H8pclf-62" style="edgeStyle=orthogonalEdgeStyle;rounded=0;orthogonalLoop=1;jettySize=auto;html=1;entryX=0;entryY=0.5;entryDx=0;entryDy=0;" edge="1" parent="WIyWlLk6GJQsqaUBKTNV-1" source="s-Dn0FR5llp2s9H8pclf-5" target="s-Dn0FR5llp2s9H8pclf-61">
          <mxGeometry relative="1" as="geometry" />
        </mxCell>
        <mxCell id="s-Dn0FR5llp2s9H8pclf-5" value="Login to Account" style="ellipse;whiteSpace=wrap;html=1;aspect=fixed;fillColor=#f8cecc;strokeColor=#b85450;" vertex="1" parent="WIyWlLk6GJQsqaUBKTNV-1">
          <mxGeometry x="425" y="520" width="80" height="80" as="geometry" />
        </mxCell>
        <mxCell id="s-Dn0FR5llp2s9H8pclf-6" value="Database" style="rounded=1;whiteSpace=wrap;html=1;fillColor=#fff2cc;strokeColor=#d6b656;" vertex="1" parent="WIyWlLk6GJQsqaUBKTNV-1">
          <mxGeometry x="240" y="270" width="130" height="60" as="geometry" />
        </mxCell>
        <mxCell id="s-Dn0FR5llp2s9H8pclf-11" style="edgeStyle=orthogonalEdgeStyle;rounded=0;orthogonalLoop=1;jettySize=auto;html=1;entryX=0.5;entryY=1;entryDx=0;entryDy=0;" edge="1" parent="WIyWlLk6GJQsqaUBKTNV-1" source="s-Dn0FR5llp2s9H8pclf-7" target="s-Dn0FR5llp2s9H8pclf-5">
          <mxGeometry relative="1" as="geometry" />
        </mxCell>
        <mxCell id="s-Dn0FR5llp2s9H8pclf-7" value="User" style="rounded=0;whiteSpace=wrap;html=1;fillColor=#dae8fc;strokeColor=#6c8ebf;" vertex="1" parent="WIyWlLk6GJQsqaUBKTNV-1">
          <mxGeometry x="420" y="670" width="90" height="40" as="geometry" />
        </mxCell>
        <mxCell id="s-Dn0FR5llp2s9H8pclf-12" style="edgeStyle=orthogonalEdgeStyle;rounded=0;orthogonalLoop=1;jettySize=auto;html=1;entryX=0;entryY=0.5;entryDx=0;entryDy=0;" edge="1" parent="WIyWlLk6GJQsqaUBKTNV-1" source="s-Dn0FR5llp2s9H8pclf-8" target="s-Dn0FR5llp2s9H8pclf-5">
          <mxGeometry relative="1" as="geometry" />
        </mxCell>
        <mxCell id="s-Dn0FR5llp2s9H8pclf-8" value="Family Group Host user" style="rounded=0;whiteSpace=wrap;html=1;fillColor=#dae8fc;strokeColor=#6c8ebf;" vertex="1" parent="WIyWlLk6GJQsqaUBKTNV-1">
          <mxGeometry x="220" y="540" width="90" height="40" as="geometry" />
        </mxCell>
        <mxCell id="s-Dn0FR5llp2s9H8pclf-68" style="edgeStyle=orthogonalEdgeStyle;rounded=0;orthogonalLoop=1;jettySize=auto;html=1;exitX=0.5;exitY=0;exitDx=0;exitDy=0;entryX=1;entryY=0.5;entryDx=0;entryDy=0;startArrow=classic;startFill=1;" edge="1" parent="WIyWlLk6GJQsqaUBKTNV-1" source="s-Dn0FR5llp2s9H8pclf-9" target="s-Dn0FR5llp2s9H8pclf-6">
          <mxGeometry relative="1" as="geometry" />
        </mxCell>
        <mxCell id="s-Dn0FR5llp2s9H8pclf-9" value="View family group" style="ellipse;whiteSpace=wrap;html=1;aspect=fixed;fillColor=#f8cecc;strokeColor=#b85450;" vertex="1" parent="WIyWlLk6GJQsqaUBKTNV-1">
          <mxGeometry x="625" y="375" width="80" height="80" as="geometry" />
        </mxCell>
        <mxCell id="s-Dn0FR5llp2s9H8pclf-67" style="edgeStyle=orthogonalEdgeStyle;rounded=0;orthogonalLoop=1;jettySize=auto;html=1;exitX=0.5;exitY=0;exitDx=0;exitDy=0;entryX=1;entryY=0.75;entryDx=0;entryDy=0;startArrow=classic;startFill=1;" edge="1" parent="WIyWlLk6GJQsqaUBKTNV-1" source="s-Dn0FR5llp2s9H8pclf-10" target="s-Dn0FR5llp2s9H8pclf-6">
          <mxGeometry relative="1" as="geometry" />
        </mxCell>
        <mxCell id="s-Dn0FR5llp2s9H8pclf-10" value="View Map&lt;div style=&quot;font-size: 10px;&quot;&gt;with users location&lt;/div&gt;" style="ellipse;whiteSpace=wrap;html=1;aspect=fixed;fontSize=10;fillColor=#f8cecc;strokeColor=#b85450;" vertex="1" parent="WIyWlLk6GJQsqaUBKTNV-1">
          <mxGeometry x="490" y="375" width="80" height="80" as="geometry" />
        </mxCell>
        <mxCell id="s-Dn0FR5llp2s9H8pclf-45" value="" style="endArrow=classicThin;html=1;rounded=0;entryX=0.75;entryY=1;entryDx=0;entryDy=0;exitX=0.266;exitY=0.049;exitDx=0;exitDy=0;exitPerimeter=0;endFill=1;" edge="1" parent="WIyWlLk6GJQsqaUBKTNV-1" source="s-Dn0FR5llp2s9H8pclf-5" target="s-Dn0FR5llp2s9H8pclf-6">
          <mxGeometry width="50" height="50" relative="1" as="geometry">
            <mxPoint x="290" y="410" as="sourcePoint" />
            <mxPoint x="340" y="360" as="targetPoint" />
          </mxGeometry>
        </mxCell>
        <mxCell id="s-Dn0FR5llp2s9H8pclf-46" value="" style="endArrow=none;html=1;rounded=0;entryX=0.25;entryY=1;entryDx=0;entryDy=0;exitX=0.043;exitY=0.273;exitDx=0;exitDy=0;exitPerimeter=0;endFill=0;startArrow=classic;startFill=1;" edge="1" parent="WIyWlLk6GJQsqaUBKTNV-1" source="s-Dn0FR5llp2s9H8pclf-5" target="s-Dn0FR5llp2s9H8pclf-6">
          <mxGeometry width="50" height="50" relative="1" as="geometry">
            <mxPoint x="408" y="524" as="sourcePoint" />
            <mxPoint x="300" y="330" as="targetPoint" />
          </mxGeometry>
        </mxCell>
        <mxCell id="s-Dn0FR5llp2s9H8pclf-47" value="Verify" style="text;html=1;align=center;verticalAlign=middle;whiteSpace=wrap;rounded=0;fillColor=default;" vertex="1" parent="WIyWlLk6GJQsqaUBKTNV-1">
          <mxGeometry x="320" y="430" width="60" height="30" as="geometry" />
        </mxCell>
        <mxCell id="s-Dn0FR5llp2s9H8pclf-50" value="Confirm" style="text;html=1;align=center;verticalAlign=middle;whiteSpace=wrap;rounded=0;fillColor=default;" vertex="1" parent="WIyWlLk6GJQsqaUBKTNV-1">
          <mxGeometry x="350" y="380" width="60" height="30" as="geometry" />
        </mxCell>
        <mxCell id="s-Dn0FR5llp2s9H8pclf-51" value="Fetch and update" style="text;html=1;align=center;verticalAlign=middle;whiteSpace=wrap;rounded=0;fillColor=default;" vertex="1" parent="WIyWlLk6GJQsqaUBKTNV-1">
          <mxGeometry x="500" y="335" width="60" height="30" as="geometry" />
        </mxCell>
        <mxCell id="s-Dn0FR5llp2s9H8pclf-52" value="Fetch and update" style="text;html=1;align=center;verticalAlign=middle;whiteSpace=wrap;rounded=0;fillColor=default;" vertex="1" parent="WIyWlLk6GJQsqaUBKTNV-1">
          <mxGeometry x="625" y="335" width="80" height="30" as="geometry" />
        </mxCell>
        <mxCell id="s-Dn0FR5llp2s9H8pclf-55" value="Fetch and update" style="text;html=1;align=center;verticalAlign=middle;whiteSpace=wrap;rounded=0;fillColor=default;" vertex="1" parent="WIyWlLk6GJQsqaUBKTNV-1">
          <mxGeometry x="840" y="335" width="80" height="30" as="geometry" />
        </mxCell>
        <mxCell id="s-Dn0FR5llp2s9H8pclf-56" value="Fetch&amp;nbsp;" style="text;html=1;align=center;verticalAlign=middle;whiteSpace=wrap;rounded=0;fillColor=default;" vertex="1" parent="WIyWlLk6GJQsqaUBKTNV-1">
          <mxGeometry x="1070" y="330" width="80" height="30" as="geometry" />
        </mxCell>
        <mxCell id="s-Dn0FR5llp2s9H8pclf-57" value="Fetch and update" style="text;html=1;align=center;verticalAlign=middle;whiteSpace=wrap;rounded=0;fillColor=default;" vertex="1" parent="WIyWlLk6GJQsqaUBKTNV-1">
          <mxGeometry x="750" y="335" width="80" height="30" as="geometry" />
        </mxCell>
        <mxCell id="s-Dn0FR5llp2s9H8pclf-58" value="login details" style="text;html=1;align=center;verticalAlign=middle;whiteSpace=wrap;rounded=0;fillColor=default;" vertex="1" parent="WIyWlLk6GJQsqaUBKTNV-1">
          <mxGeometry x="422.5" y="630" width="85" height="30" as="geometry" />
        </mxCell>
        <mxCell id="s-Dn0FR5llp2s9H8pclf-59" value="login details" style="text;html=1;align=center;verticalAlign=middle;whiteSpace=wrap;rounded=0;fillColor=default;" vertex="1" parent="WIyWlLk6GJQsqaUBKTNV-1">
          <mxGeometry x="320" y="550" width="85" height="30" as="geometry" />
        </mxCell>
        <mxCell id="s-Dn0FR5llp2s9H8pclf-61" value="Home page" style="ellipse;whiteSpace=wrap;html=1;aspect=fixed;fillColor=#f8cecc;strokeColor=#b85450;" vertex="1" parent="WIyWlLk6GJQsqaUBKTNV-1">
          <mxGeometry x="730" y="520" width="80" height="80" as="geometry" />
        </mxCell>
        <mxCell id="s-Dn0FR5llp2s9H8pclf-63" value="Go to" style="text;html=1;align=center;verticalAlign=middle;whiteSpace=wrap;rounded=0;fillColor=default;" vertex="1" parent="WIyWlLk6GJQsqaUBKTNV-1">
          <mxGeometry x="580" y="540" width="60" height="30" as="geometry" />
        </mxCell>
        <mxCell id="s-Dn0FR5llp2s9H8pclf-66" style="edgeStyle=orthogonalEdgeStyle;rounded=0;orthogonalLoop=1;jettySize=auto;html=1;entryX=0.5;entryY=0;entryDx=0;entryDy=0;" edge="1" parent="WIyWlLk6GJQsqaUBKTNV-1" source="s-Dn0FR5llp2s9H8pclf-64" target="s-Dn0FR5llp2s9H8pclf-6">
          <mxGeometry relative="1" as="geometry" />
        </mxCell>
        <mxCell id="s-Dn0FR5llp2s9H8pclf-64" value="Storage" style="rounded=1;whiteSpace=wrap;html=1;fillColor=#fff2cc;strokeColor=#d6b656;" vertex="1" parent="WIyWlLk6GJQsqaUBKTNV-1">
          <mxGeometry x="900" y="150" width="130" height="60" as="geometry" />
        </mxCell>
        <mxCell id="s-Dn0FR5llp2s9H8pclf-80" value="add" style="text;html=1;align=center;verticalAlign=middle;whiteSpace=wrap;rounded=0;fillColor=default;" vertex="1" parent="WIyWlLk6GJQsqaUBKTNV-1">
          <mxGeometry x="960" y="330" width="80" height="30" as="geometry" />
        </mxCell>
        <mxCell id="s-Dn0FR5llp2s9H8pclf-81" value="add" style="text;html=1;align=center;verticalAlign=middle;whiteSpace=wrap;rounded=0;fillColor=default;" vertex="1" parent="WIyWlLk6GJQsqaUBKTNV-1">
          <mxGeometry x="910" y="280" width="80" height="30" as="geometry" />
        </mxCell>
        <mxCell id="s-Dn0FR5llp2s9H8pclf-82" value="send URL to database" style="text;html=1;align=center;verticalAlign=middle;whiteSpace=wrap;rounded=0;fillColor=default;" vertex="1" parent="WIyWlLk6GJQsqaUBKTNV-1">
          <mxGeometry x="630" y="165" width="80" height="30" as="geometry" />
        </mxCell>
        <mxCell id="s-Dn0FR5llp2s9H8pclf-83" value="" style="endArrow=classic;html=1;rounded=0;entryX=0.875;entryY=0.938;entryDx=0;entryDy=0;entryPerimeter=0;" edge="1" parent="WIyWlLk6GJQsqaUBKTNV-1" source="s-Dn0FR5llp2s9H8pclf-61" target="s-Dn0FR5llp2s9H8pclf-10">
          <mxGeometry width="50" height="50" relative="1" as="geometry">
            <mxPoint x="670" y="390" as="sourcePoint" />
            <mxPoint x="720" y="340" as="targetPoint" />
          </mxGeometry>
        </mxCell>
        <mxCell id="s-Dn0FR5llp2s9H8pclf-84" value="" style="endArrow=classic;html=1;rounded=0;exitX=0.207;exitY=0.067;exitDx=0;exitDy=0;exitPerimeter=0;entryX=0.5;entryY=1;entryDx=0;entryDy=0;" edge="1" parent="WIyWlLk6GJQsqaUBKTNV-1" source="s-Dn0FR5llp2s9H8pclf-61" target="s-Dn0FR5llp2s9H8pclf-9">
          <mxGeometry width="50" height="50" relative="1" as="geometry">
            <mxPoint x="753" y="536" as="sourcePoint" />
            <mxPoint x="570" y="460" as="targetPoint" />
          </mxGeometry>
        </mxCell>
        <mxCell id="s-Dn0FR5llp2s9H8pclf-85" value="" style="endArrow=classic;html=1;rounded=0;exitX=0.635;exitY=0.01;exitDx=0;exitDy=0;entryX=0.5;entryY=1;entryDx=0;entryDy=0;exitPerimeter=0;" edge="1" parent="WIyWlLk6GJQsqaUBKTNV-1" source="s-Dn0FR5llp2s9H8pclf-61" target="s-Dn0FR5llp2s9H8pclf-2">
          <mxGeometry width="50" height="50" relative="1" as="geometry">
            <mxPoint x="765" y="531" as="sourcePoint" />
            <mxPoint x="675" y="465" as="targetPoint" />
          </mxGeometry>
        </mxCell>
        <mxCell id="s-Dn0FR5llp2s9H8pclf-86" value="" style="endArrow=classic;html=1;rounded=0;exitX=1;exitY=0;exitDx=0;exitDy=0;entryX=0.418;entryY=1.015;entryDx=0;entryDy=0;entryPerimeter=0;" edge="1" parent="WIyWlLk6GJQsqaUBKTNV-1" source="s-Dn0FR5llp2s9H8pclf-61" target="s-Dn0FR5llp2s9H8pclf-3">
          <mxGeometry width="50" height="50" relative="1" as="geometry">
            <mxPoint x="775" y="541" as="sourcePoint" />
            <mxPoint x="685" y="475" as="targetPoint" />
          </mxGeometry>
        </mxCell>
        <mxCell id="s-Dn0FR5llp2s9H8pclf-87" value="" style="endArrow=classic;html=1;rounded=0;entryX=0.5;entryY=1;entryDx=0;entryDy=0;exitX=0.976;exitY=0.337;exitDx=0;exitDy=0;exitPerimeter=0;" edge="1" parent="WIyWlLk6GJQsqaUBKTNV-1" source="s-Dn0FR5llp2s9H8pclf-61" target="s-Dn0FR5llp2s9H8pclf-4">
          <mxGeometry width="50" height="50" relative="1" as="geometry">
            <mxPoint x="810" y="540" as="sourcePoint" />
            <mxPoint x="695" y="485" as="targetPoint" />
          </mxGeometry>
        </mxCell>
        <mxCell id="s-Dn0FR5llp2s9H8pclf-88" value="from home page user can go to any of this pages" style="text;html=1;align=center;verticalAlign=middle;whiteSpace=wrap;rounded=0;fillColor=default;" vertex="1" parent="WIyWlLk6GJQsqaUBKTNV-1">
          <mxGeometry x="825" y="545" width="150" height="30" as="geometry" />
        </mxCell>
      </root>
    </mxGraphModel>
  </diagram>
</mxfile>
